<?xml version="1.0" encoding="utf-8"?>
<!-- Designed by Vexels.com - 2019 All Rights Reserved - https://vexels.com/terms-and-conditions/  -->
<svg version="1.1" id="Layer_1" xmlns="http://www.w3.org/2000/svg" xmlns:xlink="http://www.w3.org/1999/xlink" x="0px" y="0px"
	 viewBox="0 0 1200 1200" enable-background="new 0 0 1200 1200" xml:space="preserve">
<g>
	<path fill="#62D9E8" d="M1134.759,582.723c-9.201-2.528-18.955-10.213-29.8-23.469l-1.885-2.304
		c-12.243-14.989-23.81-29.151-41.864-40.102c-3.568-2.164-7.679-4.077-12.187-5.699c3.619-3.205,6.729-6.549,9.212-9.928
		c11.773-16.035,16.964-33.542,21.981-50.477l1.879-6.292c4.944-16.332,10.996-27.138,18.485-33.01
		c6.784-4.072,11.41-12.596,7.568-21.886c-3.753-9.078-13.037-11.908-20.706-10.157c-9.43,1.18-21.41-2.181-36.517-10.286
		l-2.668-1.432c-17.031-9.15-33.122-17.797-53.973-21.002c-4.128-0.632-8.658-0.839-13.44-0.604
		c2.109-4.346,3.708-8.625,4.709-12.696c4.743-19.33,2.836-37.502,0.99-55.075l-0.671-6.505
		c-1.678-16.975-0.229-29.274,4.441-37.563c4.715-6.365,5.727-16.013-1.382-23.122c-6.941-6.952-16.617-6.013-23.021-1.454
		c-8.289,4.709-20.627,6.186-37.664,4.469l-2.948-0.296c-19.251-1.941-37.451-3.786-57.972,1.247
		c-4.055,0.99-8.317,2.545-12.646,4.586c0.291-4.827,0.129-9.391-0.509-13.535c-3.009-19.665-11.723-35.717-20.146-51.244
		l-3.127-5.778c-8.048-15.034-11.41-26.953-10.263-36.405c1.913-7.674-0.85-16.975-10.135-20.829
		c-9.061-3.759-17.657,0.811-21.813,7.461c-5.867,7.534-16.701,13.608-33.094,18.547l-2.847,0.861
		c-18.535,5.576-36.042,10.839-53.078,23.334c-3.367,2.472-6.706,5.537-9.922,9.078c-1.583-4.57-3.479-8.725-5.649-12.31
		c-10.314-17.025-24.52-28.53-38.257-39.655l-5.062-4.117c-13.194-10.811-20.862-20.538-23.418-29.705
		c-1.163-7.83-7.277-15.37-17.333-15.37c-9.821,0-16.002,7.506-17.305,15.241c-2.528,9.195-10.213,18.949-23.469,29.8l-2.304,1.885
		c-14.989,12.243-29.151,23.81-40.102,41.859c-2.164,3.568-4.083,7.685-5.699,12.193c-3.21-3.619-6.549-6.728-9.928-9.212
		c-16.019-11.762-33.508-16.953-50.422-21.97l-6.354-1.896c-16.326-4.939-27.132-10.985-33.005-18.479
		c-4.072-6.784-12.601-11.421-21.886-7.567c-9.083,3.759-11.919,13.06-10.157,20.706c1.18,9.463-2.187,21.421-10.286,36.517
		l-1.437,2.679c-9.15,17.031-17.792,33.111-20.996,53.962c-0.638,4.128-0.828,8.664-0.604,13.44
		c-4.346-2.109-8.625-3.708-12.696-4.709c-19.302-4.743-37.479-2.83-55.047-0.99l-6.533,0.671
		c-16.975,1.678-29.274,0.224-37.563-4.441c-6.365-4.721-16.019-5.727-23.122,1.381c-6.952,6.952-6.013,16.628-1.454,23.015
		c4.709,8.289,6.169,20.622,4.469,37.669l-0.296,2.948c-1.941,19.263-3.781,37.451,1.242,57.978c0.996,4.055,2.55,8.317,4.586,12.64
		c-4.81-0.274-9.385-0.129-13.53,0.509c-19.654,3.009-35.695,11.712-51.216,20.135l-5.8,3.132
		c-15.045,8.048-26.97,11.415-36.411,10.269c-7.674-1.935-16.981,0.85-20.829,10.135c-3.759,9.072,0.811,17.652,7.461,21.813
		c7.534,5.867,13.608,16.701,18.547,33.094l0.861,2.847c5.576,18.535,10.839,36.042,23.329,53.073
		c2.467,3.367,5.537,6.712,9.078,9.933c-4.564,1.577-8.72,3.473-12.305,5.643c-17.009,10.302-28.502,24.486-39.616,38.206
		l-4.161,5.112c-10.806,13.194-20.527,20.862-29.699,23.418c-7.83,1.163-15.37,7.277-15.37,17.322
		c-0.011,9.833,7.5,16.013,15.241,17.316c9.201,2.528,18.955,10.213,29.8,23.469l1.885,2.304
		c12.243,14.989,23.81,29.151,41.859,40.102c3.568,2.164,7.685,4.077,12.187,5.699c-3.613,3.205-6.723,6.549-9.206,9.928
		c-11.773,16.03-16.958,33.53-21.975,50.455l-1.885,6.315c-4.944,16.332-10.996,27.138-18.485,33.01
		c-6.784,4.072-11.41,12.596-7.567,21.886c3.753,9.078,13.054,11.924,20.706,10.157c9.419-1.147,21.416,2.181,36.517,10.286
		l2.679,1.437c17.031,9.15,33.111,17.792,53.962,20.996c4.128,0.632,8.658,0.839,13.44,0.604c-2.109,4.346-3.708,8.625-4.709,12.696
		c-4.743,19.318-2.836,37.485-0.99,55.047l0.671,6.533c1.678,16.981,0.224,29.28-4.452,37.563
		c-4.709,6.365-5.716,16.018,1.393,23.122c6.947,6.963,16.634,6.007,23.015,1.454c8.289-4.704,20.627-6.18,37.669-4.469l2.948,0.296
		c19.257,1.946,37.451,3.786,57.972-1.247c4.055-0.99,8.317-2.545,12.646-4.586c-0.291,4.827-0.129,9.396,0.509,13.535
		c3.009,19.665,11.723,35.717,20.146,51.244l3.121,5.772c8.054,15.045,11.415,26.97,10.269,36.411
		c-1.913,7.674,0.85,16.975,10.135,20.828c9.05,3.747,17.657-0.811,21.813-7.461c5.867-7.534,16.701-13.608,33.094-18.547
		l2.847-0.861c18.535-5.576,36.042-10.839,53.073-23.334c3.367-2.467,6.712-5.537,9.928-9.072c1.583,4.564,3.479,8.72,5.649,12.305
		c10.308,17.014,24.498,28.514,38.223,39.633l5.095,4.139c13.194,10.811,20.862,20.538,23.418,29.705
		c1.163,7.83,7.277,15.37,17.333,15.37c9.821,0,16.002-7.506,17.305-15.241c2.528-9.201,10.213-18.955,23.469-29.8l2.304-1.885
		c14.989-12.243,29.151-23.81,40.102-41.859c2.164-3.568,4.083-7.685,5.699-12.193c3.21,3.619,6.555,6.729,9.933,9.212
		c16.019,11.762,33.519,16.958,50.438,21.975l6.331,1.89c16.326,4.939,27.132,10.985,33.005,18.479
		c4.072,6.784,12.601,11.421,21.886,7.568c9.083-3.759,11.919-13.06,10.157-20.706c-1.18-9.464,2.187-21.422,10.286-36.517
		l1.437-2.679c9.15-17.031,17.792-33.111,20.996-53.962c0.638-4.128,0.828-8.664,0.604-13.44c4.346,2.109,8.625,3.708,12.696,4.709
		c19.313,4.748,37.485,2.841,55.047,0.99l6.533-0.671c16.953-1.684,29.274-0.224,37.563,4.446
		c6.365,4.715,16.019,5.739,23.122-1.387c6.952-6.952,6.013-16.628,1.454-23.015c-4.709-8.289-6.169-20.622-4.469-37.669
		l0.296-2.948c1.941-19.263,3.781-37.451-1.247-57.972c-0.99-4.055-2.545-8.317-4.586-12.646c4.838,0.291,9.396,0.134,13.535-0.509
		c19.665-3.009,35.717-11.723,51.244-20.146l5.772-3.121c15.04-8.048,26.925-11.438,36.411-10.269
		c7.662,1.918,16.975-0.85,20.829-10.135c3.758-9.072-0.811-17.652-7.461-21.813c-7.534-5.867-13.608-16.701-18.547-33.094
		l-0.861-2.847c-5.576-18.535-10.839-36.042-23.334-53.073c-2.467-3.367-5.537-6.712-9.078-9.928
		c4.57-1.583,8.725-3.479,12.31-5.649c17.014-10.308,28.514-24.498,39.633-38.223l4.139-5.095
		c10.811-13.194,20.538-20.862,29.705-23.418c7.83-1.163,15.37-7.277,15.37-17.333C1150,590.207,1142.494,584.026,1134.759,582.723z
		 M990.805,369.319c16.953,2.606,30.7,9.995,46.613,18.541l2.679,1.443c13.916,7.467,26.304,11.74,37.485,12.898
		c-7.092,8.725-12.836,20.499-17.411,35.611l-1.918,6.421c-4.665,15.745-9.078,30.611-18.485,43.43
		c-4.054,5.519-11.61,11.476-20.362,16.224c-1.408-6.2-2.953-12.356-4.633-18.473c4.979-3.156,8.618-6.361,10.247-8.577
		c7.526-10.245,11.312-23.016,15.697-37.799l1.945-6.523c2.047-6.766,4.332-12.998,6.868-18.702
		c-5.831-2.252-11.852-5.049-18.082-8.389l-2.646-1.422c-15.037-8.082-26.914-14.462-40.779-16.595
		c-2.824-0.435-7.679-0.221-13.386,0.899c-3.15-5.554-6.424-11.042-9.828-16.463C974.325,369.237,983.889,368.249,990.805,369.319z
		 M1007.338,600.14c-0.039,108.808-42.446,211.082-119.406,287.993c-70.502,70.451-162.28,111.783-260.823,118.214l93.681-162.128
		c87.743-43.498,148.251-133.968,148.288-238.358c0.003-5.789-0.247-11.518-0.611-17.216l97.238-168.284
		C992.905,475.613,1007.36,536.752,1007.338,600.14z M600.006,1007.338c-0.045,0-0.106,0-0.151,0c-0.076,0-0.148-0.006-0.222-0.006
		l-87.424-151.547c28.334,10.328,58.895,15.983,90.756,15.994c0.039,0,0.062,0,0.101,0c29-0.001,56.902-4.732,83.054-13.353
		l-86.044,148.91C600.052,1007.336,600.029,1007.338,600.006,1007.338z M192.657,599.855
		c0.024-64.417,15.136-125.347,41.891-179.542L337.236,598.32c-0.067,2.449-0.189,4.886-0.189,7.351
		c-0.035,100.916,56.423,188.904,139.423,234.004l96.131,166.639C360.671,992.158,192.581,815.299,192.657,599.855z M600,192.657
		c0.045,0,0.101,0,0.14,0c108.808,0.039,211.082,42.446,287.993,119.412c22.853,22.868,42.574,48.018,59.117,74.868l-193.27-0.068
		c-42.888-29.662-94.844-47.101-150.82-47.12c-0.039,0-0.062,0-0.101,0c-55.936,0-107.871,17.399-150.756,47.014l-199.154-0.07
		C324.951,270.364,453.555,192.657,600,192.657z M846.168,605.85c-0.05,134.027-109.087,243.024-243.103,243.019
		c-0.028,0-0.067,0-0.089,0c-134.049-0.05-243.069-109.143-243.019-243.187c0.05-134.027,109.087-243.024,243.103-243.024
		c0.028,0,0.067,0,0.09,0C737.198,362.708,846.218,471.801,846.168,605.85z M341.189,559.324l-86.371-149.724l168.722,0.06
		C381.277,448.383,351.585,500.559,341.189,559.324z M782.728,409.789l162.593,0.058l-81.835,141.625
		C851.93,495.973,823.029,446.769,782.728,409.789z M872.774,237.329c16.69-4.083,32.227-2.511,50.226-0.705l2.97,0.302
		c15.716,1.572,28.793,0.777,39.56-2.427c-3.21,10.767-4.01,23.843-2.455,39.565l0.682,6.633
		c1.717,16.337,3.339,31.774-0.453,47.217c-1.639,6.665-6.348,15.079-12.632,22.827c-3.677-5.149-7.479-10.22-11.396-15.224
		c3.435-4.859,5.596-9.26,6.259-11.956c3.03-12.349,1.64-25.597,0.035-40.937l-0.695-6.761c-0.701-7.036-0.973-13.666-0.817-19.904
		c-6.228,0.14-12.872-0.126-19.909-0.831l-3.016-0.302c-16.976-1.712-30.383-3.059-44.006,0.27
		c-2.784,0.681-7.239,2.768-12.127,6.033c-5.031-3.95-10.129-7.785-15.308-11.492C857.508,243.571,866.002,238.99,872.774,237.329z
		 M713.221,160.547c13.854-10.157,28.81-14.659,46.126-19.867l2.864-0.861c15.118-4.558,26.897-10.297,35.628-17.383
		c1.152,11.186,5.414,23.569,12.87,37.49l3.182,5.889c7.83,14.436,15.23,28.072,17.641,43.783
		c1.037,6.773-0.092,16.326-2.927,25.874c-5.381-3.389-10.827-6.649-16.339-9.786c1.289-5.752,1.594-10.599,1.177-13.325
		c-1.923-12.551-8.278-24.259-15.633-37.815l-3.23-5.986c-3.342-6.229-6.129-12.252-8.371-18.079
		c-5.716,2.528-11.944,4.813-18.717,6.855l-2.843,0.855c-16.36,4.923-29.282,8.806-40.604,17.111
		c-2.295,1.682-5.576,5.267-8.823,10.099c-6.155-1.701-12.351-3.266-18.59-4.692C701.523,172.139,707.605,164.672,713.221,160.547z
		 M536.435,150.67c8.91-14.687,21.002-24.565,35.007-36.003l2.321-1.896c12.221-10,20.907-19.805,26.254-29.688
		c5.347,9.889,14.027,19.699,26.243,29.71l5.162,4.2c12.775,10.342,24.839,20.113,33.077,33.721
		c3.554,5.862,6.172,15.143,7.209,25.068c-6.242-1.042-12.517-1.939-18.826-2.707c-1.008-5.87-2.59-10.514-4.026-12.886
		c-6.583-10.863-16.939-19.249-28.926-28.962l-5.264-4.28c-5.471-4.486-10.35-8.978-14.652-13.507
		c-4.312,4.52-9.195,9.014-14.669,13.491l-2.293,1.874c-13.236,10.808-23.692,19.345-30.976,31.355
		c-1.489,2.455-3.167,7.091-4.316,12.874c-6.361,0.774-12.682,1.664-18.955,2.714C530.041,165.906,532.81,156.639,536.435,150.67z
		 M369.319,209.196c2.606-16.953,9.989-30.689,18.535-46.596l1.449-2.696c7.467-13.916,11.74-26.304,12.898-37.479
		c8.725,7.086,20.499,12.831,35.605,17.4l6.477,1.935c15.722,4.665,30.577,9.072,43.38,18.474
		c5.534,4.064,11.516,11.66,16.276,20.461c-6.203,1.421-12.355,2.963-18.453,4.649c-3.178-5.039-6.417-8.721-8.65-10.363
		c-10.245-7.525-23.015-11.312-37.799-15.696l-6.523-1.946c-6.766-2.047-12.998-4.331-18.702-6.868
		c-2.247,5.831-5.044,11.846-8.384,18.078l-1.416,2.64c-8.088,15.041-14.472,26.918-16.606,40.789
		c-0.442,2.857-0.21,7.822,0.958,13.65c-5.561,3.156-11.049,6.42-16.452,9.813C369.257,225.832,368.254,216.139,369.319,209.196z
		 M274.064,236.926l6.656-0.688c16.326-1.723,31.757-3.339,47.194,0.459c6.726,1.653,15.233,6.429,23.038,12.799
		c-5.167,3.682-10.246,7.471-15.241,11.371c-4.939-3.518-9.422-5.73-12.151-6.401c-12.333-3.026-25.591-1.646-40.931-0.036
		l-6.761,0.695c-7.036,0.7-13.661,0.972-19.91,0.817c0.151,6.244-0.126,12.873-0.831,19.909l-0.302,3.01
		c-1.713,16.977-3.064,30.388,0.275,44.006c0.689,2.824,2.825,7.361,6.166,12.331c-3.933,5.02-7.755,10.127-11.466,15.323
		c-6.147-7.874-10.802-16.462-12.478-23.296c-4.083-16.69-2.511-32.227-0.699-50.226l0.302-2.97
		c1.566-15.717,0.777-28.788-2.427-39.56C245.276,237.681,258.353,238.481,274.064,236.926z M140.68,440.653l-0.861-2.864
		c-4.558-15.118-10.297-26.897-17.383-35.628c11.181-1.152,23.564-5.414,37.49-12.864l5.917-3.199
		c14.425-7.83,28.049-15.219,43.755-17.629c6.817-1.027,16.483,0.118,26.122,3c-3.377,5.363-6.626,10.81-9.77,16.329
		c-5.876-1.339-10.837-1.657-13.591-1.242c-12.556,1.924-24.264,8.279-37.82,15.638l-5.971,3.225
		c-6.239,3.336-12.261,6.123-18.089,8.371c2.528,5.711,4.813,11.939,6.856,18.707l0.87,2.884
		c4.918,16.35,8.801,29.262,17.095,40.579c1.696,2.309,5.329,5.626,10.22,8.898c-1.707,6.137-3.271,12.329-4.709,18.572
		c-8.62-4.905-16.13-11.016-20.264-16.651C150.39,472.925,145.888,457.97,140.68,440.653z M150.67,663.565
		c-14.687-8.91-24.565-21.002-36.003-35.007l-1.896-2.321c-9.995-12.221-19.799-20.901-29.688-26.254
		c9.889-5.347,19.699-14.027,29.705-26.243l4.24-5.213c10.336-12.752,20.096-24.794,33.687-33.027
		c5.873-3.561,15.177-6.183,25.123-7.215c-1.05,6.23-1.944,12.508-2.722,18.825c-5.887,1.008-10.542,2.594-12.917,4.032
		c-10.867,6.588-19.254,16.933-28.961,28.915l-4.297,5.281c-4.481,5.466-8.978,10.345-13.502,14.654
		c4.521,4.307,9.015,9.189,13.492,14.663l1.874,2.293c10.809,13.236,19.346,23.687,31.355,30.975
		c2.46,1.49,7.096,3.168,12.877,4.317c0.775,6.361,1.665,12.683,2.714,18.956C165.908,669.96,156.639,667.19,150.67,663.565z
		 M209.196,830.681c-16.953-2.606-30.689-9.989-46.596-18.535l-2.696-1.449c-13.916-7.467-26.304-11.74-37.485-12.898
		c7.092-8.725,12.836-20.499,17.411-35.611l1.924-6.443c4.665-15.733,9.072-30.594,18.479-43.408
		c4.069-5.54,11.667-11.523,20.461-16.279c1.422,6.203,2.963,12.355,4.649,18.454c-5.042,3.181-8.728,6.426-10.37,8.663
		c-7.52,10.234-11.306,23.005-15.691,37.789l-1.945,6.523c-2.047,6.766-4.33,12.998-6.868,18.702
		c5.831,2.247,11.846,5.043,18.078,8.384l2.657,1.427c15.034,8.082,26.912,14.462,40.772,16.595
		c2.861,0.438,7.826,0.21,13.651-0.957c3.156,5.56,6.418,11.047,9.81,16.451C225.829,830.74,216.139,831.746,209.196,830.681z
		 M327.226,962.671c-16.684,4.083-32.227,2.511-50.226,0.705l-2.97-0.302c-15.705-1.566-28.793-0.772-39.565,2.427
		c3.216-10.772,4.016-23.843,2.461-39.565l-0.688-6.656c-1.711-16.332-3.333-31.757,0.459-47.194
		c1.653-6.724,6.428-15.231,12.797-23.035c3.683,5.167,7.471,10.247,11.371,15.241c-3.517,4.939-5.729,9.42-6.398,12.148
		c-3.031,12.354-1.642,25.608-0.031,40.958l0.695,6.73c0.695,7.042,0.968,13.671,0.812,19.914
		c6.238-0.141,12.872,0.126,19.909,0.831l2.978,0.297c16.992,1.717,30.419,3.059,44.043-0.27c2.824-0.69,7.36-2.823,12.326-6.164
		c5.021,3.933,10.128,7.754,15.324,11.466C342.646,956.348,334.059,960.995,327.226,962.671z M486.78,1039.453
		c-13.854,10.157-28.81,14.659-46.126,19.867l-2.864,0.861c-15.118,4.558-26.897,10.297-35.628,17.383
		c-1.152-11.181-5.414-23.564-12.87-37.49l-3.182-5.89c-7.83-14.436-15.23-28.072-17.641-43.783
		c-1.04-6.821,0.113-16.483,2.998-26.12c5.364,3.377,10.811,6.626,16.33,9.769c-1.341,5.866-1.663,10.814-1.237,13.573
		c1.924,12.577,8.281,24.285,15.633,37.842l3.226,5.965c3.336,6.239,6.129,12.257,8.371,18.089
		c5.711-2.528,11.94-4.813,18.706-6.855l2.886-0.87c16.35-4.917,29.26-8.8,40.578-17.095c2.31-1.696,5.627-5.329,8.899-10.222
		c6.137,1.707,12.329,3.27,18.572,4.708C498.526,1027.803,492.419,1035.315,486.78,1039.453z M663.565,1049.33
		c-8.91,14.687-21.002,24.565-35.007,36.003l-2.321,1.896c-12.221,9.995-20.907,19.805-26.259,29.688
		c-5.341-9.889-14.022-19.699-26.237-29.71l-5.19-4.223c-12.763-10.336-24.816-20.102-33.049-33.698
		c-3.566-5.884-6.189-15.187-7.218-25.127c6.231,1.05,12.509,1.944,18.825,2.722c1.005,5.886,2.591,10.539,4.028,12.911
		c6.6,10.889,16.95,19.276,28.937,28.989l5.264,4.275c5.47,4.486,10.344,8.984,14.654,13.507c4.307-4.52,9.188-9.014,14.662-13.491
		l2.293-1.874c13.236-10.813,23.692-19.351,30.981-31.36c1.484-2.447,3.156-7.071,4.305-12.837
		c6.352-0.764,12.671-1.657,18.955-2.698C669.95,1034.124,667.184,1043.371,663.565,1049.33z M830.681,990.805
		c-2.606,16.953-9.989,30.689-18.535,46.596l-1.449,2.696c-7.467,13.916-11.74,26.304-12.898,37.479
		c-8.725-7.086-20.499-12.83-35.605-17.4l-6.454-1.93c-15.733-4.665-30.589-9.078-43.397-18.479
		c-5.525-4.054-11.483-11.607-16.231-20.362c6.2-1.408,12.357-2.953,18.473-4.632c3.157,4.982,6.369,8.623,8.59,10.253
		c10.234,7.52,23.004,11.307,37.788,15.691l6.523,1.946c6.766,2.046,12.998,4.33,18.702,6.868c2.253-5.831,5.049-11.851,8.39-18.083
		l1.437-2.672c8.072-15.03,14.451-26.903,16.585-40.762c0.432-2.808,0.217-7.665-0.905-13.376c5.554-3.15,11.041-6.423,16.462-9.827
		C830.759,974.337,831.736,983.922,830.681,990.805z M925.936,963.074l-6.656,0.688c-16.337,1.711-31.763,3.333-47.194-0.459
		c-6.666-1.638-15.079-6.347-22.828-12.633c5.151-3.677,10.223-7.48,15.227-11.397c4.86,3.437,9.262,5.599,11.954,6.26
		c12.338,3.021,25.591,1.642,40.931,0.036l6.762-0.695c7.042-0.7,13.644-0.962,19.914-0.817c-0.157-6.244,0.12-12.872,0.825-19.908
		l0.302-3.016c1.713-16.976,3.065-30.382-0.268-44.006c-0.682-2.784-2.769-7.237-6.035-12.127
		c3.95-5.031,7.786-10.129,11.494-15.309c6.064,7.816,10.646,16.31,12.307,23.082c4.089,16.69,2.517,32.233,0.705,50.226
		l-0.302,2.97c-1.566,15.717-0.777,28.793,2.427,39.565C954.729,962.319,941.658,961.53,925.936,963.074z M1059.32,759.346
		l0.861,2.864c4.558,15.118,10.297,26.897,17.383,35.628c-11.181,1.152-23.564,5.414-37.49,12.87l-5.89,3.182
		c-14.436,7.83-28.072,15.23-43.783,17.641c-6.754,1.023-16.318-0.101-25.874-2.929c3.387-5.379,6.646-10.823,9.782-16.333
		c5.752,1.293,10.597,1.601,13.313,1.17c12.572-1.923,24.28-8.274,37.836-15.627l5.982-3.231c6.228-3.341,12.252-6.128,18.078-8.371
		c-2.528-5.716-4.813-11.945-6.856-18.717l-0.87-2.9c-4.918-16.339-8.806-29.245-17.095-40.552
		c-1.682-2.291-5.269-5.573-10.101-8.82c1.7-6.155,3.265-12.351,4.691-18.591c8.574,4.894,16.042,10.974,20.164,16.591
		C1049.61,727.075,1054.112,742.03,1059.32,759.346z M1087.207,626.259l-4.223,5.19c-10.336,12.763-20.102,24.816-33.698,33.049
		c-5.863,3.555-15.146,6.174-25.072,7.209c1.042-6.242,1.938-12.516,2.706-18.824c5.87-1.008,10.512-2.591,12.882-4.026
		c10.873-6.589,19.26-16.944,28.972-28.931l4.28-5.265c4.487-5.471,8.984-10.345,13.507-14.654
		c-4.519-4.307-9.013-9.189-13.49-14.663l-1.875-2.293c-10.813-13.236-19.351-23.692-31.359-30.986
		c-2.444-1.48-7.07-3.152-12.838-4.301c-0.765-6.352-1.657-12.67-2.699-18.955c9.819,1.239,19.067,4.006,25.03,7.624
		c14.687,8.91,24.565,21.002,36.003,35.007l1.896,2.321c9.995,12.221,19.805,20.907,29.688,26.259
		C1107.028,605.364,1097.218,614.044,1087.207,626.259z"/>
	<path fill="#62D9E8" d="M536.361,588.911c13.574-3.718,35.459,2.864,49.497,3.112c27.658,0.489,58.852-1.184,84.124-13.669
		c28.112-13.887,30.316-49.782,15.314-75.03c9.74,0.201,19.476,0.277,29.221,0.599c3.873,2.484,8.875,3.296,14.093,0.82
		c1.723-0.817,3.443-1.633,5.164-2.449c13.409-6.359,5.852-25.835-7.133-26.332c-82.702-3.168-165.205-1.854-247.767,3.948
		c-18.042,1.268-18.182,29.54,0,28.262c53.675-3.772,107.335-5.438,161.038-5.379c3.003,3.766,7.758,6.267,12.709,5.933
		c19.545,14.452,3.668,42.229-14.767,50.652c-14.606,6.672-36.134,4.67-51.996,4.385c-22.969-0.413-51.663-8.934-73.784,0.077
		c-42.746,17.413-9.753,63.36,11.607,87.511c-30.067,33.643-30.603,84.333-2.597,119.204c17.875,22.26,63.771,65.974,92.725,42.764
		c14.191-11.375-5.92-31.258-19.984-19.984c-2.247,1.802-42.186-31.031-44.23-33.102c-25.406-25.754-28.596-66.112-2.082-92.88
		c44.187-44.608,121.119-9.253,110.048,54.58c-3.085,17.788,24.147,25.427,27.252,7.513
		c14.465-83.395-74.827-137.386-139.722-96.327C532.282,619.549,511.088,595.831,536.361,588.911z"/>
	<path fill="#62D9E8" d="M578.562,433.985c-7.339,20.513,11.828,39.642,32.068,30.545c4.177,1.251,9.761,0.295,12.338-2.977
		c6.231-7.913,11.713-16.021,12.642-26.338c0.84-9.334-3.271-19.055-10.902-24.586C606.259,397.258,584.79,416.58,578.562,433.985z"
		/>
</g>
</svg>
