<?xml version="1.0" encoding="utf-8"?>
<!-- Designed by Vexels.com - 2019 All Rights Reserved - https://vexels.com/terms-and-conditions/  -->
<svg version="1.1" id="Layer_1" xmlns="http://www.w3.org/2000/svg" xmlns:xlink="http://www.w3.org/1999/xlink" x="0px" y="0px"
	 viewBox="0 0 1200 1200" enable-background="new 0 0 1200 1200" xml:space="preserve">
<g>
	<path fill="#FF9E5C" d="M1008.635,536.552c18.736-33.189,24.545-66.367,30.686-101.49l0.973-5.535
		c6.06-34.424,16.13-58.083,30.768-72.295c8.278-6.415,13.223-18.425,6.912-29.654c-7.174-12.753-20.867-12.726-29.014-9.475
		c-19.764,5.071-45.161,1.35-77.65-11.343c-3.907-1.53-7.781-3.071-11.633-4.601c-31.566-12.54-61.384-24.386-97.119-25.572
		c-28.894-0.962-66.012,12.163-93.999,31.32c2.546-33.823-4.781-72.645-20.004-97.037c-18.928-30.331-44.122-50.199-70.793-71.23
		c-3.257-2.568-6.535-5.147-9.814-7.764c-27.271-21.758-43.221-41.893-48.723-61.515c-1.284-8.688-8.027-20.54-22.747-20.359
		c-12.879,0.169-20.796,10.464-22.195,20.84c-4.967,19.796-20.397,40.363-47.144,62.848l-4.262,3.584
		c-27.337,22.927-53.149,44.587-72.498,77.448c-14.032,23.84-21.031,60.854-19.075,93.403c-28.096-19.048-65.635-32.173-93.939-31.2
		c-35.73,1.224-65.525,13.108-97.07,25.687c-3.858,1.541-7.732,3.087-11.644,4.623c-32.484,12.742-57.898,16.48-77.634,11.442
		c-8.174-3.251-21.862-3.251-29.009,9.524c-6.295,11.234-1.333,23.233,6.956,29.637c14.655,14.196,24.752,37.844,30.856,72.252
		l0.967,5.464c6.191,35.14,12.043,68.334,30.828,101.523c13.627,24.075,42.183,48.647,71.356,63.225
		c-30.55,14.802-60.657,40.713-73.995,65.755c-16.808,31.566-21.414,63.318-26.288,96.938c-0.596,4.098-1.197,8.218-1.82,12.36
		c-5.207,34.511-14.671,58.389-28.91,72.962c-6.879,5.453-13.737,17.305-6.256,29.878c6.59,11.07,19.452,12.775,29.145,8.797
		c19.622-5.59,45.144-2.513,78,9.404l5.251,1.912c33.522,12.201,65.181,23.725,103.304,24.047c0.251,0,0.497,0.005,0.754,0.005
		c27.266-0.005,62.542-12.398,89.54-30.134c-1.83,32.555,5.267,69.673,19.179,93.239c19.381,32.828,45.215,54.45,72.569,77.339
		l4.289,3.59c26.779,22.452,42.237,43.002,47.232,62.793c1.415,10.376,9.338,20.66,22.222,20.813c0.098,0,0.202,0,0.301,0
		c14.414,0,21.151-11.764,22.414-20.392c5.48-19.632,21.403-39.784,48.647-61.575c3.273-2.617,6.541-5.196,9.792-7.77
		c26.648-21.069,51.821-40.964,70.716-71.328c14.982-24.086,22.315-63.127,19.824-96.977c26.943,17.747,62.045,30.069,89.573,30.069
		c0.301,0,0.601-0.005,0.896-0.005c38.112-0.372,69.755-11.934,103.249-24.173l5.267-1.923c32.85-11.966,58.367-15.092,77.989-9.502
		c9.693,3.956,22.561,2.235,29.135-8.841c7.458-12.584,0.59-24.43-6.295-29.872c-14.267-14.562-23.758-38.423-29.003-72.918
		c-0.634-4.147-1.235-8.273-1.836-12.376c-4.923-33.61-9.573-65.351-26.419-96.889c-13.36-25.02-43.505-50.893-74.071-65.656
		C966.518,585.248,995.041,560.643,1008.635,536.552z M733.611,848.032c-137.793,76.585-312.213,26.796-388.803-110.997
		c-58.376-105.024-43.267-231.274,28.198-319.317c-9.895,17.481-17.813,36.241-23.466,56.047
		c-18.698,65.487-10.77,134.335,22.315,193.861c33.085,59.526,87.376,102.599,152.863,121.292
		c23.222,6.633,46.86,9.912,70.361,9.912c42.778,0,85.081-10.874,123.499-32.227c59.526-33.085,102.599-87.376,121.292-152.863
		c18.698-65.482,10.77-134.329-22.315-193.855c-0.586-1.054-1.228-2.064-1.828-3.107c10.744,13.15,20.451,27.299,28.875,42.454
		C921.193,597.023,871.399,771.437,733.611,848.032z M797.995,430.756c30.184,54.302,37.413,117.101,20.359,176.84
		c-17.053,59.739-56.351,109.26-110.648,139.444c-54.297,30.178-117.106,37.407-176.845,20.359
		c-59.739-17.053-109.26-56.351-139.444-110.648c-30.184-54.302-37.413-117.106-20.359-176.845
		c17.053-59.739,56.351-109.26,110.648-139.444c20.159-11.205,41.509-19.136,63.422-23.946c16.224-2.87,32.653-4.418,49.16-4.418
		c16.492,0,33.051,1.442,49.517,4.342c4.93,1.072,9.85,2.266,14.746,3.663C718.29,337.162,767.811,376.454,797.995,430.756z
		 M469.668,226.077c17.392-29.539,40.653-49.057,67.591-71.662l4.284-3.59c30.817-25.911,48.69-50.559,54.652-75.361
		c0.082-0.344,0.186-0.962,0.235-1.311c0.06-0.421,0.219-0.951,0.393-1.382c0.12,0.311,0.224,0.645,0.257,0.836
		c0.06,0.623,0.169,1.235,0.333,1.841c6.595,24.632,25.108,48.811,56.581,73.924c3.311,2.645,6.617,5.251,9.912,7.846
		c25.097,19.785,48.8,38.478,65.662,65.498c15.881,25.449,21.595,73.488,13.189,104.986c-6.728-3.666-13.563-7.164-20.589-10.335
		c5.082-25.454,0.141-64.006-11.588-82.799c-14.797-23.714-35.992-40.423-60.537-59.777c-3.322-2.617-6.661-5.251-10.005-7.923
		c-17.775-14.179-31.921-28.309-42.604-42.598c-10.305,14.562-24.086,29.053-41.489,43.685l-4.3,3.606
		c-25.353,21.272-47.253,39.647-62.69,65.87c-10.472,17.786-15.372,51.097-12.203,75.911c-7.118,2.964-14.156,6.189-21.097,9.706
		C449.914,292.469,455.678,249.842,469.668,226.077z M211.091,526.05c-16.889-29.839-22.157-59.75-28.26-94.381l-0.973-5.486
		c-7.032-39.647-19.447-67.454-37.937-85.01c-0.372-0.355-0.77-0.683-1.191-0.984c-0.049-0.038-0.481-0.464-0.831-0.907
		c0.339,0.049,0.678,0.126,0.858,0.191c0.568,0.262,1.153,0.475,1.759,0.634c24.638,6.617,54.838,2.666,92.31-12.037
		c3.951-1.552,7.868-3.115,11.764-4.666c29.675-11.835,57.712-23.015,89.54-24.108c28.062-1.084,69.501,16.081,93.41,37.272
		c-6.631,4.131-12.988,8.543-19.2,13.096c-19.643-15.369-50.972-28.03-71.778-28.03c-0.563,0-1.115,0.011-1.667,0.027
		c-27.927,0.962-52.991,10.955-82.016,22.528c-3.934,1.574-7.89,3.147-11.879,4.715c-21.162,8.305-40.478,13.496-58.193,15.6
		c7.453,16.201,13.114,35.38,17.086,57.766l0.978,5.513c5.743,32.599,10.704,60.755,25.698,87.24
		c9.938,17.555,35.377,37.939,58.063,47.876c-0.902,7.74-1.588,15.512-1.903,23.32C257.686,575.578,224.473,549.684,211.091,526.05z
		 M342.197,899.98c-0.202,0-0.404-0.005-0.607-0.005c-34.271-0.29-62.799-10.677-95.835-22.698l-5.273-1.918
		c-37.85-13.731-68.137-16.89-92.589-9.655c-0.333,0.098-0.923,0.322-1.251,0.453c-0.388,0.158-0.929,0.29-1.393,0.35
		c0.213-0.262,0.448-0.514,0.596-0.639c0.508-0.361,0.984-0.765,1.426-1.202c18.031-18.026,29.719-46.144,35.73-85.972
		c0.634-4.18,1.235-8.344,1.836-12.485c4.59-31.632,8.928-61.515,23.9-89.633c13.009-24.431,48.061-51.633,78.187-61.987
		c0.399,7.693,1.14,15.387,2.124,23.072c-23.665,9.665-50.852,31.204-60.559,49.433c-13.136,24.676-17.015,51.395-21.501,82.327
		c-0.607,4.185-1.218,8.387-1.858,12.611c-3.393,22.49-8.557,41.806-15.589,58.198c17.764,1.645,37.2,6.333,58.575,14.086
		l5.295,1.929c31.096,11.316,57.947,21.091,88.371,21.348c0.148,0,0.295,0.005,0.443,0.005c21.414,0,53.467-12.927,73.189-28.707
		c6.34,4.518,12.849,8.757,19.482,12.765C411.649,882.903,370.878,899.98,342.197,899.98z M730.054,977.111
		c-16.829,27.047-40.516,45.773-65.591,65.596c-3.284,2.595-6.584,5.207-9.89,7.852c-31.446,25.14-49.92,49.346-56.488,73.995
		c-0.115,0.421-0.24,1.164-0.301,1.601c-0.049,0.322-0.158,0.721-0.295,1.071c-0.169-0.404-0.317-0.874-0.361-1.164
		c-0.049-0.514-0.137-1.016-0.257-1.519c-5.994-24.802-23.905-49.428-54.756-75.295l-4.306-3.606
		c-26.96-22.561-50.237-42.041-67.662-71.552c-14.674-24.857-20.428-69.426-13.47-100.43c6.871,3.429,13.853,6.615,20.945,9.52
		c-4.226,25.253,0.698,60.732,11.797,79.529c15.469,26.2,37.38,44.538,62.75,65.766l4.328,3.623
		c17.42,14.606,31.222,29.08,41.549,43.625c10.66-14.3,24.791-28.446,42.549-42.642c3.339-2.672,6.672-5.306,9.988-7.928
		c24.523-19.387,45.696-36.129,60.466-59.865c12.29-19.751,17.133-60.817,10.72-86.297c6.857-3.108,13.647-6.479,20.359-10.135
		C751.834,900.016,746.239,951.099,730.054,977.111z M991.702,676.072c15.004,28.096,19.376,57.963,24.009,89.584
		c0.607,4.147,1.219,8.316,1.852,12.502c6.06,39.806,17.78,67.908,35.844,85.917c0.311,0.311,0.891,0.792,1.235,1.06
		c0.257,0.202,0.546,0.508,0.787,0.798c-0.443-0.055-0.923-0.164-1.202-0.273c-0.47-0.208-0.951-0.388-1.443-0.53
		c-24.463-7.207-54.739-4.016-92.578,9.77l-5.289,1.929c-33.009,12.059-61.52,22.479-95.786,22.813
		c-30.504,0.124-75.435-19.385-97.574-42.355c6.422-4.129,12.638-8.464,18.656-12.992c18.704,17.455,54.992,32.971,78.197,32.971
		c0.169,0,0.333,0,0.503-0.005c30.419-0.295,57.253-10.098,88.322-21.452l5.311-1.94c21.359-7.781,40.8-12.496,58.553-14.168
		c-7.054-16.381-12.24-35.697-15.66-58.176c-0.645-4.229-1.262-8.437-1.874-12.622c-4.53-30.927-8.437-57.63-21.605-82.284
		c-11.228-21.026-45.733-46.432-71.222-52.894c0.881-7.495,1.542-15.021,1.873-22.581
		C934.621,617.749,977.061,648.667,991.702,676.072z M902.738,589.128c-0.209-7.593-0.646-15.193-1.423-22.789
		c24.705-7.367,56.876-31.48,68.339-51.791c14.955-26.484,19.878-54.625,25.577-87.201l0.978-5.579
		c3.945-22.397,9.579-41.582,17.015-57.794c-17.72-2.082-37.036-7.251-58.214-15.529c-3.983-1.557-7.934-3.125-11.862-4.688
		c-29.047-11.54-54.133-21.507-82.071-22.43c-22.67-0.645-59.203,14.847-78.412,32.337c-6.028-4.634-12.214-9.064-18.582-13.239
		c22.975-23.193,67.738-42.541,97.732-41.468c31.839,1.055,59.892,12.201,89.595,24.004c3.896,1.546,7.808,3.098,11.748,4.639
		c37.506,14.655,67.689,18.578,92.332,11.923c0.601-0.158,1.191-0.372,1.759-0.634c0.005,0,0.415-0.115,0.852-0.186
		c-0.268,0.35-0.601,0.716-0.831,0.902c-0.415,0.301-0.814,0.628-1.186,0.978c-18.474,17.583-30.85,45.407-37.833,85.065
		l-0.973,5.557c-6.06,34.615-11.289,64.509-28.135,94.343C974.094,552.217,933.828,581.806,902.738,589.128z"/>
	<path fill="#FF9E5C" d="M707.16,491.808c-67.4-4.508-135.651-3.257-202.854,3.727c-9.081,0.945-13.72,9.087-12.955,16.409
		c0.77,7.437,6.661,12.218,14.114,11.507c49.477-5.147,99.911-7.12,149.967-5.956c-0.869,15.135-1.563,30.861-2.071,46.931
		c-24.889-17.747-59.52-23.217-96.999-14.944c-48.844,10.775-94.594,43.631-86.688,92.726c6.978,43.292,55.461,62.662,98.348,56.329
		c26.424-3.89,60.952-13.562,84.759-37.26c0.366,18.365,0.994,36.478,1.863,54.023c0.257,5.164,2.983,9.447,7.486,11.753
		c2.158,1.109,4.546,1.656,6.918,1.656c2.765,0,5.502-0.749,7.792-2.229c3.912-2.524,6.016-6.803,5.77-11.737
		c-1.776-35.637-2.492-72.213-2.136-108.735c1.366-3.191,1.41-6.737,0.12-10.081c0.393-26.162,1.322-52.198,2.77-77.443
		c3.284,0.164,6.568,0.344,9.852,0.53c3.136,2.082,6.983,2.727,10.857,1.814l6.256-1.508c6.71-1.617,10.83-7.278,10.251-14.081
		C719.956,497.933,714.318,492.289,707.16,491.808z M652.508,604.494c-1.153,1.546-1.978,3.388-2.421,5.448
		c-6.792,31.845-30.807,45.325-64.782,55.761c-20.802,6.398-49.794,9.327-68.837-1.585c-9.152-5.246-15.081-13.393-17.633-24.217
		c-2.47-10.469-0.934-20.206,4.552-28.932c11.42-18.152,38.402-29.659,59.843-34.375c9.185-2.022,18.048-3.005,26.457-3.005
		c27.277,0,49.772,10.398,62.832,29.746L652.508,604.494z"/>
	<path fill="#FF9E5C" d="M586.944,471.318c3.054,1.328,6.284,1.983,9.491,1.983c5.306,0,10.551-1.787,14.857-5.235
		c6.612-5.3,9.595-13.425,7.983-21.736c-1.836-9.458-9.557-16.168-19.195-16.999c-4.371-3.563-11.13-4.918-16.409-1.109
		c-7.557,5.437-11.693,13.321-11.349,21.638C572.699,459.187,578.442,467.607,586.944,471.318z"/>
</g>
</svg>
