<?xml version="1.0" encoding="utf-8"?>
<!-- Designed by Vexels.com - 2019 All Rights Reserved - https://vexels.com/terms-and-conditions/  -->
<svg version="1.1" id="Layer_1" xmlns="http://www.w3.org/2000/svg" xmlns:xlink="http://www.w3.org/1999/xlink" x="0px" y="0px"
	 viewBox="0 0 1200 1200" enable-background="new 0 0 1200 1200" xml:space="preserve">
<g>
	<path fill="#8B58BC" d="M1086.25,634.307c16.824-22.523,32.643-35.876,48.351-40.806c6.754-1.199,15.885-6.831,15.371-18.261
		c-0.497-11.154-10.087-16.073-16.841-16.797c-16.111-3.488-33.091-15.387-51.888-36.363l-2.974-3.322
		c-4.246-4.748-8.448-9.421-12.698-14.005c6.568-15.74,10.869-32.014,15.302-48.866c0.879-3.355,1.769-6.721,2.675-10.109
		c7.638-28.365,17.852-47.456,31.222-58.333c5.969-3.692,12.535-12.491,7.727-23.158c-4.687-10.402-15.675-11.436-22.374-9.573
		c-17.051,2.83-38.126-2.139-64.468-15.238l-4.239-2.106c-19.348-9.637-37.942-18.842-58.734-24.649
		c-0.898-7.405-1.99-14.833-3.126-22.381l-1.476-9.905c-4.024-27.818-2.277-48.456,5.334-63.047
		c3.93-5.632,6.406-16.062-2.04-23.789c-8.252-7.539-18.499-4.223-23.789,0.033c-13.856,8.921-34.312,12.524-62.401,10.977
		l-4.455-0.243c-6.362-0.357-12.638-0.692-18.883-0.928c-6.487-15.778-14.956-30.328-23.742-45.384
		c-1.741-2.99-3.493-5.991-5.24-9.026c-14.663-25.452-20.937-46.173-19.173-63.324c1.614-6.831,0.028-17.692-10.91-21.837
		c-10.695-4.062-19.179,2.996-22.589,9.048c-10.026,14.061-28.47,25.452-56.365,34.815l-4.482,1.503
		c-20.5,6.868-40.157,13.508-58.966,24.107c-5.87-4.599-11.893-9.078-18.032-13.611l-8.047-5.969
		c-22.517-16.819-35.876-32.643-40.812-48.351c-1.205-6.76-6.793-16.04-18.261-15.376c-11.148,0.497-16.062,10.087-16.791,16.841
		c-3.493,16.117-15.393,33.096-36.368,51.888l-3.344,2.99c-4.741,4.241-9.406,8.437-13.982,12.681
		c-15.748-6.571-32.032-10.872-48.894-15.307c-3.338-0.879-6.699-1.763-10.076-2.67c-28.365-7.627-47.456-17.847-58.333-31.217
		c-3.692-5.975-12.497-12.546-23.158-7.732c-10.413,4.687-11.447,15.68-9.573,22.374c2.846,17.023-2.139,38.12-15.233,64.473
		l-2.073,4.156c-9.653,19.372-18.878,37.989-24.691,58.814c-7.388,0.896-14.8,1.985-22.334,3.117
		c-3.294,0.497-6.61,0.995-9.949,1.481c-27.818,4.035-48.456,2.283-63.047-5.334c-5.627-3.935-16.067-6.4-23.783,2.039
		c-7.539,8.241-4.234,18.494,0.028,23.789c8.926,13.856,12.519,34.279,10.977,62.406l-0.249,4.488
		c-0.354,6.348-0.685,12.612-0.92,18.846c-15.765,6.482-30.308,14.944-45.352,23.723c-3.001,1.747-6.019,3.51-9.059,5.262
		c-25.469,14.663-46.223,20.926-63.318,19.168c-6.848-1.603-17.703-0.033-21.854,10.916c-4.035,10.678,3.007,19.173,9.059,22.584
		c14.05,10.021,25.441,28.47,34.815,56.365l1.503,4.482c6.867,20.499,13.508,40.155,24.106,58.962
		c-4.599,5.869-9.078,11.892-13.61,18.03l-5.969,8.059c-16.83,22.517-32.654,35.871-48.356,40.806
		c-6.76,1.205-15.885,6.831-15.371,18.261c0.497,11.154,10.087,16.067,16.841,16.797c16.111,3.488,33.091,15.387,51.888,36.363
		l3.012,3.36c4.234,4.735,8.423,9.394,12.663,13.964c-6.573,15.751-10.875,32.038-15.31,48.906c-0.879,3.338-1.763,6.699-2.67,10.07
		c-7.638,28.37-17.858,47.461-31.217,58.327c-5.975,3.692-12.541,12.497-7.732,23.164c4.692,10.413,15.68,11.458,22.374,9.567
		c16.996-2.83,38.109,2.139,64.473,15.238l4.19,2.089c19.361,9.644,37.971,18.859,58.78,24.669
		c0.898,7.407,1.991,14.838,3.128,22.389l1.47,9.899c4.024,27.823,2.283,48.456-5.334,63.047c-3.93,5.627-6.4,16.062,2.039,23.789
		c3.565,3.261,7.511,4.488,11.27,4.488c4.919,0,9.518-2.111,12.519-4.527c13.862-8.921,34.279-12.541,62.401-10.977l4.494,0.249
		c6.346,0.353,12.609,0.685,18.842,0.92c6.487,15.781,14.958,30.333,23.744,45.391c1.741,2.99,3.493,5.991,5.24,9.026
		c14.663,25.452,20.937,46.173,19.173,63.324c-1.614,6.831-0.033,17.692,10.91,21.838c2.194,0.835,4.295,1.194,6.279,1.194
		c7.677,0,13.602-5.433,16.31-10.247c10.021-14.05,28.47-25.441,56.365-34.815l4.444-1.492c20.51-6.865,40.181-13.507,59-24.114
		c5.872,4.602,11.898,9.083,18.042,13.618l8.042,5.964c22.517,16.819,35.876,32.643,40.812,48.351
		c1.172,6.577,6.527,15.393,17.344,15.393c0.298,0,0.602-0.005,0.912-0.017c11.159-0.492,16.073-10.087,16.802-16.847
		c3.488-16.106,15.387-33.085,36.363-51.888l3.383-3.029c4.727-4.229,9.379-8.412,13.942-12.644
		c15.731,6.564,31.995,10.865,48.84,15.297c3.36,0.884,6.738,1.774,10.131,2.686c28.37,7.633,47.461,17.847,58.333,31.223
		c2.797,4.521,8.534,9.385,15.785,9.385c2.321,0,4.792-0.497,7.373-1.658c10.413-4.687,11.447-15.68,9.573-22.374
		c-2.846-17.023,2.139-38.12,15.244-64.473l2.089-4.206c9.643-19.359,18.853-37.964,24.662-58.767
		c7.406-0.898,14.837-1.992,22.39-3.13l9.899-1.47c27.812-4.024,48.445-2.283,63.047,5.339c2.863,2.001,6.97,3.62,11.331,3.62
		c4.212,0,8.655-1.514,12.447-5.66c7.539-8.235,4.234-18.499-0.028-23.794c-8.926-13.862-12.519-34.279-10.977-62.401l0.249-4.499
		c0.354-6.345,0.685-12.604,0.92-18.836c15.773-6.486,30.322-14.952,45.375-23.734c2.99-1.747,6.002-3.499,9.042-5.251
		c25.452-14.663,46.157-20.931,63.313-19.168c6.843,1.608,17.703,0.033,21.849-10.916c4.051-10.678-2.996-19.179-9.053-22.589
		c-14.044-10.015-25.436-28.459-34.815-56.36l-1.476-4.4c-6.873-20.529-13.519-40.215-24.131-59.047
		c4.599-5.868,9.075-11.89,13.608-18.028L1086.25,634.307z M1066.618,632.278c-15.255,20.66-29.669,40.176-50.982,54.431
		c-4.489,3.005-9.892,5.604-15.828,7.792c-0.055-0.179-0.117-0.338-0.173-0.518l-1.315-4.256c-2.606-8.442-5.201-16.723-8.036-24.88
		c3.076-1.202,5.841-2.533,8.047-4.01c16.802-11.237,29.056-27.834,43.244-47.047c2.028-2.747,4.068-5.51,6.135-8.274
		c7.622-10.209,15.316-19.107,23.125-26.746c-8.456-6.914-16.913-15.094-25.419-24.584l-3.007-3.36
		c-17.412-19.471-31.229-34.873-50.378-45.528c1.057-3.574,2.102-7.169,3.149-10.799l2.78-9.578c1.011-3.433,2.06-6.712,3.145-9.856
		c1.817,0.795,3.565,1.634,5.206,2.532c24.203,13.232,40.464,31.421,59.3,52.474l2.985,3.338
		c21.484,23.971,41.619,37.628,61.55,41.752l1.155,0.16c0.193,0.011,1.465,0.337,1.824,0.785c-0.227,0.238-1.089,0.602-1.509,0.68
		l-1.387,0.293c-19.483,5.881-38.319,21.274-57.587,47.069C1070.614,626.867,1068.614,629.581,1066.618,632.278z M1076.18,729.245
		c10.662,31.72,24.253,53.027,41.553,65.131l1,0.602c0.271,0.138,1.465,1.083,1.625,1.481l-0.21,0.663
		c-0.332,0.171-1.432,0.171-1.979,0.05l-1.387-0.276c-21.025-2.382-45.294,4.565-74.278,21.263c-3.062,1.763-6.102,3.537-9.12,5.3
		c-12.272,7.157-24.198,14.064-36.603,19.739c-0.152-9.009-0.771-18.042-2.207-27.216c8.426-4.317,16.947-9.253,25.976-14.52
		c3.062-1.791,6.141-3.582,9.247-5.372c14.083-8.114,27.398-14.238,40.049-18.411c-6.715-11.507-12.629-24.911-17.808-40.32
		l-1.487-4.444c-4.82-14.396-9.317-27.654-14.943-39.945c7.102-5.762,13.471-11.965,19.361-18.53
		c8.034,15.621,13.634,32.187,19.729,50.388L1076.18,729.245z M992.434,957.304l0.707,0.934c0.127,0.144,0.801,1.271,0.735,1.846
		c-0.138,0.094-1.194-0.343-1.553-0.586l-1.183-0.774c-12.088-6.478-27.016-9.7-45.223-9.7c-8.81,0-18.383,0.757-28.774,2.261
		l-9.998,1.487c-25.397,3.825-49.396,7.445-74.555,2.443c-6.87-1.362-14.341-4.26-21.826-8.206c0.028-0.053,0.05-0.103,0.077-0.156
		l2.117-4.013c4.165-7.891,8.221-15.656,12.013-23.51c4.904,2.631,9.623,4.55,13.677,5.354c19.826,3.93,40.232,0.862,63.865-2.697
		c3.372-0.503,6.76-1.017,10.17-1.509c12.602-1.824,24.341-2.747,35.268-2.554c-1.094-10.872-1.288-22.639-0.591-35.357l0.249-4.549
		c1.47-26.364,2.631-47.19-3.615-68.514c-0.336-1.144-0.77-2.337-1.267-3.557c1.986-1.09,3.966-2.176,5.965-3.28l8.794-4.831
		c4.447-2.425,8.686-4.501,12.831-6.412c1.436,3.163,2.661,6.293,3.551,9.33c7.749,26.458,6.395,50.805,4.825,78.993l-0.254,4.516
		C976.682,916.404,981.258,940.297,992.434,957.304z M845.331,1028.1c-14.895,29.962-20.351,54.635-16.681,75.445l0.243,0.995
		c0.221,0.796,0.26,2.039,0.144,2.327l-0.619,0.321c-0.359-0.116-1.139-0.89-1.432-1.365l-0.785-1.172
		c-13.149-16.537-35.252-28.796-67.563-37.485c-3.421-0.923-6.831-1.818-10.22-2.714c-13.728-3.613-27.036-7.159-39.814-11.916
		c6.265-6.478,12.215-13.303,17.688-20.805c9.002,2.902,18.507,5.434,28.604,8.092c3.438,0.906,6.892,1.813,10.363,2.747
		c15.697,4.223,29.437,9.302,41.337,15.304c3.388-12.889,8.689-26.552,15.924-41.11l2.111-4.239
		c6.761-13.571,12.947-26.111,17.656-38.764c9.099,0.946,17.988,1.063,26.794,0.587c-5.359,16.71-13.103,32.372-21.651,49.535
		L845.331,1028.1z M666.601,1068.603c-23.971,21.495-37.634,41.625-41.757,61.544l-0.16,1.166c-0.011,0.188-0.332,1.465-0.779,1.818
		c-0.238-0.227-0.602-1.089-0.68-1.509l-0.298-1.387c-5.881-19.483-21.279-38.319-47.069-57.587l-8.114-6.014
		c-20.666-15.26-40.187-29.675-54.442-50.993c-4.452-6.654-8.018-15.298-10.637-24.768l0.158-0.049
		c10.018-3.096,19.828-6.136,29.447-9.638c1.753,6.842,4.089,12.936,6.905,17.143c11.242,16.813,27.84,29.072,47.058,43.26
		c2.741,2.023,5.499,4.057,8.257,6.124c10.208,7.622,19.113,15.316,26.751,23.131c6.914-8.456,15.094-16.913,24.579-25.419
		l3.421-3.062c19.671-17.598,35.213-31.499,45.864-50.976c0.66-1.208,1.266-2.573,1.845-4.003c0.34,0.098,0.673,0.196,1.013,0.294
		l9.634,2.797c6.914,2.036,13.218,4.227,18.972,6.569c-1.238,3.317-2.609,6.451-4.154,9.277
		c-13.221,24.175-31.383,40.425-52.419,59.239L666.601,1068.603z M315.742,978.445c-32.157-1.752-56.022,2.824-73.04,13.995
		l-0.818,0.614c-0.542,0.431-1.57,0.906-1.957,0.835c-0.011-0.332,0.343-1.199,0.586-1.559l0.774-1.183
		c9.612-17.93,12.044-42.133,7.434-73.997l-1.487-9.993c-3.819-25.402-7.434-49.401-2.437-74.555
		c1.528-7.713,5.024-16.179,9.735-24.576c9.302,4.892,18.514,9.584,27.963,13.759c-3.558,6.032-6.188,11.942-7.166,16.869
		c-3.935,19.837-0.868,40.243,2.692,63.871c0.503,3.366,1.017,6.754,1.509,10.164c1.824,12.607,2.681,24.341,2.554,35.268
		c6.632-0.669,13.597-1,20.903-1c4.676,0,9.496,0.138,14.453,0.409l4.549,0.249c26.37,1.476,47.19,2.636,68.514-3.615
		c0.239-0.07,0.497-0.181,0.741-0.258l3.438,6.255c4.234,7.773,7.591,15.024,10.264,21.889c-1.921,0.76-3.825,1.44-5.693,1.988
		c-26.464,7.754-50.822,6.384-78.999,4.825L315.742,978.445z M171.911,845.331c-23.96-11.905-44.543-17.781-62.456-17.781
		c-4.494,0-8.821,0.37-12.989,1.105l-0.995,0.243c-0.79,0.221-2.045,0.26-2.332,0.138l-0.321-0.608
		c0.116-0.359,0.89-1.139,1.365-1.437l1.177-0.785c16.52-13.143,28.785-35.241,37.485-67.557c0.917-3.405,1.807-6.793,2.697-10.164
		c3.615-13.749,7.166-27.078,11.93-39.875c6.478,6.264,13.304,12.213,20.804,17.685c-2.907,9.02-5.444,18.547-8.105,28.668
		c-0.901,3.416-1.802,6.854-2.73,10.302c-4.228,15.697-9.308,29.443-15.31,41.337c12.889,3.388,26.552,8.689,41.11,15.924
		l4.228,2.106c13.576,6.762,26.12,12.952,38.777,17.661c-0.948,9.097-1.064,17.987-0.587,26.794
		c-16.714-5.36-32.378-13.109-49.548-21.662L171.911,845.331z M131.403,666.607c-21.484-23.971-41.619-37.628-61.55-41.757
		l-1.006-0.144c-0.685-0.077-1.702-0.431-1.973-0.796c0.227-0.238,1.089-0.602,1.509-0.68l1.387-0.298
		c19.477-5.881,38.314-21.274,57.587-47.063c2.028-2.719,4.029-5.433,6.025-8.13c15.255-20.66,29.669-40.176,50.982-54.431
		c5.534-3.702,12.43-6.807,20.038-9.256c3.135,9.999,6.391,19.792,10.262,29.389c-5.132,1.582-9.663,3.508-12.996,5.739
		c-16.802,11.237-29.056,27.834-43.244,47.047c-2.028,2.747-4.068,5.51-6.135,8.274c-7.622,10.203-15.316,19.107-23.131,26.746
		c8.462,6.914,16.918,15.094,25.425,24.584l3.04,3.394c16.241,18.16,29.39,32.746,46.626,43.272l-2.211,7.616
		c-2.462,8.366-5.171,15.768-8.085,22.439c-0.084-0.046-0.182-0.085-0.267-0.131c-24.187-13.226-40.442-31.399-59.267-52.441
		L131.403,666.607z M207.566,242.708l-0.707-0.929c-0.127-0.149-0.801-1.277-0.735-1.846h0.017c0.337,0,1.183,0.348,1.531,0.586
		l1.188,0.774c17.941,9.617,42.144,12.055,74.002,7.434c3.372-0.486,6.715-0.989,10.043-1.492
		c25.391-3.814,49.362-7.417,74.505-2.432c4.947,0.981,10.206,2.767,15.556,5.154c-4.858,9.288-9.487,18.515-13.547,28.033
		c-2.858-1.225-5.593-2.165-8.067-2.655c-19.826-3.941-40.21-0.862-63.816,2.686c-3.383,0.508-6.787,1.017-10.22,1.514
		c-12.613,1.824-24.485,2.725-35.268,2.559c1.094,10.872,1.288,22.639,0.591,35.357l-0.249,4.543
		c-1.252,22.455-2.236,40.888,1.349,59.034c-0.832,0.459-1.657,0.91-2.493,1.371l-8.727,4.797c-6.048,3.295-11.806,6.1-17.3,8.446
		c-6.619-25.07-5.411-48.486-3.908-75.385l0.249-4.505C223.318,283.608,218.742,259.715,207.566,242.708z M533.399,131.409
		c23.971-21.478,37.628-41.608,41.757-61.539l0.144-1.006c0.077-0.691,0.437-1.708,0.796-1.984c0.238,0.227,0.602,1.094,0.68,1.514
		l0.298,1.387c5.881,19.483,21.279,38.319,47.069,57.587l8.119,6.019c20.666,15.255,40.182,29.669,54.442,50.982
		c2.205,3.298,4.174,7.12,5.946,11.247c-10.07,3.124-19.933,6.312-29.599,10.022c-0.707-1.437-1.441-2.798-2.225-3.969
		c-11.237-16.791-27.834-29.05-47.052-43.238c-2.741-2.028-5.499-4.062-8.263-6.13c-10.208-7.622-19.113-15.316-26.751-23.131
		c-6.914,8.462-15.1,16.918-24.59,25.425l-3.372,3.018c-16.562,14.817-30.156,27.053-40.415,42.162
		c-2.786-0.816-5.581-1.626-8.4-2.439l-9.578-2.78c-4.552-1.341-8.755-2.771-12.801-4.244c13.037-22.311,30.413-37.984,50.44-55.902
		L533.399,131.409z M794.907,81.4c0.403-0.719,1.26-1.625,1.548-1.747l0.658,0.21c0.171,0.332,0.177,1.426,0.05,1.973l-0.276,1.387
		c-2.388,20.992,4.571,45.289,21.268,74.284c1.763,3.056,3.532,6.085,5.289,9.103c7.162,12.274,14.071,24.203,19.747,36.613
		c-9.009,0.153-18.04,0.776-27.214,2.212c-4.319-8.431-9.259-16.957-14.531-25.991c-1.785-3.056-3.576-6.124-5.361-9.225
		c-8.114-14.089-14.238-27.398-18.411-40.055c-11.513,6.715-24.922,12.629-40.331,17.803l-4.51,1.514
		c-14.366,4.813-27.599,9.304-39.87,14.918c-5.763-7.102-11.967-13.471-18.534-19.362c15.597-8.022,32.14-13.616,50.312-19.704
		l4.494-1.509c31.709-10.645,53.016-24.236,65.137-41.553L794.907,81.4z M884.258,221.567c32.129,1.747,56.034-2.819,73.04-13.995
		l0.813-0.608c0.542-0.437,1.531-0.835,1.962-0.84c0.011,0.332-0.343,1.199-0.586,1.553l-0.774,1.188
		c-9.612,17.941-12.043,42.144-7.434,74.002l1.487,9.999c3.825,25.402,7.434,49.396,2.443,74.549
		c-0.801,4.041-2.185,8.3-3.946,12.638l-0.906-0.478c-9.049-4.777-17.924-9.442-26.969-13.685c0.542-1.573,1.006-3.108,1.291-4.538
		c3.935-19.826,0.862-40.226-2.692-63.849c-0.508-3.372-1.023-6.76-1.514-10.175c-1.824-12.607-2.681-24.347-2.554-35.274
		c-10.877,1.094-22.639,1.282-35.357,0.591l-4.505-0.249c-23.732-1.322-42.968-2.343-62.116,1.999
		c-1.914-3.53-3.852-7.066-5.823-10.632l-4.797-8.727c-1.653-3.034-3.181-5.992-4.596-8.885l0.025-0.008
		c15.962-4.676,31.162-6.041,46.897-6.041c10.358,0,20.948,0.591,32.14,1.216L884.258,221.567z M1028.094,354.681
		c29.951,14.89,54.624,20.345,75.439,16.675l0.989-0.238c0.796-0.227,2.045-0.254,2.338-0.138l0.321,0.608
		c-0.116,0.359-0.89,1.133-1.365,1.426l-1.183,0.79c-16.52,13.154-28.785,35.252-37.479,67.563
		c-0.923,3.416-1.813,6.815-2.703,10.197c-3.615,13.74-7.16,27.058-11.921,39.843c-6.479-6.264-13.305-12.213-20.807-17.686
		c2.903-9.009,5.436-18.525,8.093-28.634c0.901-3.427,1.807-6.876,2.741-10.336c4.223-15.697,9.308-29.443,15.31-41.343
		c-12.895-3.383-26.552-8.683-41.11-15.918l-4.267-2.128c-13.562-6.755-26.093-12.936-38.735-17.641
		c0.947-9.098,1.063-17.988,0.586-26.796c16.699,5.356,32.349,13.098,49.502,21.643L1028.094,354.681z M421.884,174.045l-0.26-1.139
		c-0.05-0.182-0.188-1.481,0.072-1.957c0.31,0.133,0.929,0.796,1.155,1.166l0.757,1.199c12.265,16.183,33.201,28.459,63.998,37.523
		l9.672,2.813c24.623,7.097,47.881,13.807,68.608,28.791c8.396,6.069,17.189,16.366,24.761,28.984l7.235,12.06l7.301-12.021
		c7.611-12.524,16.421-22.871,24.817-29.122c22.042-16.421,45.278-23.601,72.184-31.913l4.311-1.332
		c30.67-9.512,51.43-22.086,63.462-38.441l0.63-0.984c0.088-0.171,0.901-1.177,1.426-1.332c0.122,0.31,0.094,1.221-0.011,1.642
		l-0.315,1.382c-2.769,20.108,3.355,43.592,18.72,71.797l4.847,8.816c12.397,22.429,24.104,43.62,28.16,68.878
		c1.647,10.231,0.586,23.728-2.985,38.004l-3.416,13.652l13.669-3.344c14.227-3.477,27.779-4.565,38.137-3.051
		c27.199,3.974,48.705,15.327,73.61,28.475l3.991,2.106c28.42,14.973,51.999,20.754,72.051,17.703l1.144-0.26
		c0.182-0.05,1.476-0.199,1.951,0.066c-0.133,0.31-0.796,0.929-1.166,1.15l-1.199,0.763c-16.189,12.276-28.459,33.207-37.523,64.004
		l-2.813,9.672c-7.097,24.623-13.807,47.881-28.791,68.608c-6.063,8.385-16.36,17.178-28.99,24.761l-12.055,7.24l12.021,7.296
		c12.524,7.605,22.871,16.415,29.122,24.811c16.432,22.059,23.612,45.305,31.924,72.228l1.321,4.272
		c9.512,30.67,22.086,51.429,38.441,63.456l0.984,0.625c0.166,0.094,1.177,0.906,1.327,1.432c-0.304,0.127-1.216,0.099-1.631-0.011
		l-1.382-0.31c-20.124-2.73-43.598,3.36-71.797,18.72c-2.979,1.625-5.936,3.255-8.876,4.88
		c-22.412,12.381-43.587,24.07-68.823,28.127c-10.225,1.653-23.717,0.575-38.01-2.985l-13.641-3.41l3.338,13.663
		c3.482,14.232,4.565,27.774,3.051,38.137c-3.974,27.188-15.321,48.688-28.459,73.577l-2.122,4.024
		c-14.967,28.409-20.76,51.977-17.703,72.051l0.26,1.144c0.055,0.182,0.193,1.476-0.066,1.951c-0.31-0.133-0.929-0.796-1.155-1.166
		l-0.757-1.199c-12.259-16.183-33.196-28.459-64.004-37.523c-3.255-0.962-6.5-1.896-9.728-2.83
		c-24.601-7.097-47.837-13.801-68.547-28.774c-8.396-6.069-17.189-16.366-24.767-28.99l-7.24-12.066l-7.296,12.027
		c-7.6,12.524-16.41,22.866-24.811,29.122c-22.047,16.426-45.289,23.606-72.195,31.919l-4.306,1.332
		c-30.67,9.512-51.429,22.086-63.456,38.435l-0.625,0.984c-0.094,0.171-0.912,1.183-1.432,1.332
		c-0.127-0.31-0.094-1.221,0.011-1.642l0.31-1.376c2.769-20.108-3.355-43.592-18.72-71.797c-1.625-2.979-3.255-5.925-4.875-8.86
		c-12.381-22.418-24.076-43.592-28.133-68.834c-1.642-10.22-0.58-23.717,2.985-38.01l3.41-13.641l-13.663,3.338
		c-14.227,3.477-27.774,4.576-38.137,3.051c-27.188-3.974-48.688-15.321-73.577-28.459l-4.024-2.122
		c-28.404-14.967-51.988-20.743-72.051-17.703l-1.139,0.26c-0.182,0.05-1.481,0.182-1.957-0.072
		c0.133-0.304,0.796-0.923,1.166-1.144l1.199-0.763c16.183-12.27,28.459-33.207,37.523-64.004c0.962-3.255,1.896-6.5,2.83-9.722
		c7.097-24.607,13.801-47.842,28.779-68.558c6.058-8.39,16.355-17.178,28.984-24.761l12.06-7.235l-12.021-7.301
		c-12.535-7.611-22.877-16.426-29.122-24.811c-16.426-22.048-23.606-45.289-31.919-72.195l-1.332-4.306
		c-9.512-30.67-22.081-51.424-38.43-63.462l-0.862-0.553c-0.586-0.354-1.354-1.089-1.459-1.498c0.298-0.138,1.216-0.105,1.642,0.011
		l1.376,0.31c20.091,2.73,43.587-3.355,71.797-18.72l8.816-4.847c22.429-12.397,43.62-24.104,68.878-28.16
		c10.214-1.658,23.711-0.58,38.01,2.985l13.641,3.41l-3.338-13.663c-3.482-14.232-4.565-27.779-3.045-38.137
		c3.968-27.204,15.327-48.705,28.475-73.604l2.106-3.996C419.148,217.676,424.935,194.108,421.884,174.045z M365.402,86.754
		l6.181,6.07c0.359,0.116,1.133,0.89,1.426,1.365l0.79,1.177c13.16,16.537,35.257,28.796,67.563,37.485
		c3.405,0.917,6.798,1.807,10.17,2.697c13.747,3.615,27.072,7.164,39.865,11.928c-6.262,6.478-12.211,13.305-17.683,20.807
		c-9.019-2.907-18.543-5.444-28.661-8.107c-3.421-0.895-6.854-1.802-10.308-2.73c-1.836-0.494-3.555-1.04-5.338-1.557
		c-1.805-0.929-3.818-1.54-5.995-1.749c-11.075-3.497-21.065-7.486-30.009-11.998c-3.388,12.889-8.683,26.552-15.918,41.105
		l-2.089,4.201c-6.773,13.586-12.969,26.138-17.681,38.804c-9.099-0.948-17.988-1.065-26.795-0.588
		c5.364-16.726,13.116-32.399,21.677-49.574l2.084-4.173c14.884-29.962,20.34-54.641,16.67-75.445l-0.243-0.995
		c-0.221-0.796-0.26-2.039-0.138-2.332l-5.569-6.391l-0.008-0.01L365.402,86.754z M71.187,402.976l8.665-0.083
		c0.182-0.094,0.591-0.138,1.011-0.138c0.354,0,0.719,0.033,0.967,0.088l1.387,0.276c20.953,2.371,45.272-4.565,74.278-21.263
		c3.068-1.769,6.113-3.543,9.142-5.312c12.263-7.156,24.182-14.06,36.581-19.732c0.152,9.01,0.774,18.044,2.209,27.218
		c-8.419,4.315-16.935,9.248-25.957,14.511c-3.068,1.791-6.152,3.593-9.269,5.383c-14.083,8.114-27.398,14.238-40.049,18.405
		c6.715,11.507,12.629,24.916,17.808,40.326l1.514,4.516c4.814,14.367,9.305,27.601,14.919,39.87
		c-7.104,5.762-13.474,11.966-19.364,18.531c-8.021-15.597-13.615-32.139-19.703-50.31l-1.509-4.494
		c-10.656-31.714-24.247-53.021-41.553-65.137l-0.873-0.536c-0.724-0.403-1.625-1.26-1.747-1.553L71.187,402.976h-0.012H71.187z
		 M402.96,1128.818l-0.072-8.665c-0.171-0.332-0.177-1.426-0.05-1.973l0.276-1.387c2.388-20.997-4.571-45.294-21.268-74.284
		c-1.763-3.057-3.532-6.085-5.289-9.103c-7.163-12.276-14.073-24.207-19.75-36.62c9.011-0.151,18.043-0.771,27.217-2.205
		c4.319,8.431,9.259,16.957,14.531,25.991c1.785,3.056,3.576,6.124,5.361,9.225c8.114,14.089,14.238,27.398,18.411,40.055
		c11.507-6.715,24.916-12.629,40.326-17.808l4.488-1.503c14.379-4.816,27.624-9.308,39.901-14.927
		c5.762,7.102,11.965,13.472,18.528,19.363c-15.607,8.027-32.161,13.622-50.343,19.712l-4.46,1.498
		c-31.714,10.656-53.021,24.247-65.137,41.553l-0.608,1.006c-0.133,0.265-1.072,1.459-1.476,1.619L402.96,1128.818v0.013V1128.818z"
		/>
	<path fill="#8B58BC" d="M429.606,264.623c-12.292,23.28-22.003,41.669-25.198,63.572c-0.923,6.306,0.006,16.111,2.482,26.243
		l0.56,2.288c-16.82,13.761-32.103,29.31-45.652,46.307l-2.993-0.748c-11.778-2.946-20.926-3.2-25.53-2.454
		c-19.892,3.2-37.905,13.154-58.764,24.673c-2.968,1.642-5.953,3.289-8.965,4.93c-11.126,6.063-21.777,10.927-32.013,14.597
		c4.781,9.766,9.031,20.671,12.779,32.77l1.343,4.339c7.771,25.159,13.912,45.029,27.143,62.788
		c1.42,1.907,7.091,8.766,20.318,16.802l1.846,1.121c-1.013,10.087-1.542,20.315-1.542,30.665c0,11.684,0.727,23.196,2.015,34.541
		l-2.501,1.501c-10.407,6.246-17.034,12.519-19.77,16.299c-11.806,16.327-17.504,36.081-24.104,58.957
		c-0.945,3.278-1.901,6.577-2.874,9.893c-3.576,12.149-7.666,23.114-12.303,32.941c10.28,3.532,20.997,8.241,32.206,14.144
		l4.046,2.133c23.275,12.287,41.652,21.987,63.55,25.187c6.273,0.934,16.1-0.006,26.237-2.487l2.288-0.56
		c13.761,16.82,29.31,32.103,46.307,45.652l-0.748,2.994c-2.94,11.778-3.195,20.909-2.454,25.53
		c3.2,19.875,13.138,37.877,24.651,58.72c1.653,2.985,3.305,5.986,4.958,9.015c6.063,11.126,10.922,21.771,14.591,32.007
		c9.766-4.781,20.671-9.026,32.765-12.779l4.344-1.343c25.159-7.771,45.029-13.912,62.788-27.143
		c5.107-3.803,11.386-11.391,16.791-20.301l1.13-1.863c10.088,1.013,20.316,1.543,30.667,1.543c11.684,0,23.196-0.728,34.542-2.015
		l1.501,2.501c6.246,10.402,12.524,17.04,16.321,19.787c16.305,11.789,36.059,17.488,58.93,24.087
		c3.283,0.945,6.583,1.901,9.899,2.874c12.148,3.576,23.114,7.666,32.941,12.303c3.532-10.28,8.241-20.997,14.144-32.206
		l2.133-4.046c12.287-23.275,21.987-41.652,25.187-63.55c0.923-6.295-0.011-16.106-2.487-26.237l-0.56-2.288
		c16.82-13.761,32.103-29.31,45.652-46.307l2.993,0.748c11.773,2.94,20.914,3.195,25.53,2.454
		c19.875-3.2,37.872-13.138,58.714-24.645c2.99-1.653,5.991-3.311,9.026-4.963c11.12-6.063,21.771-10.922,32.002-14.591
		c-4.781-9.766-9.031-20.671-12.779-32.77l-1.332-4.311c-7.777-25.17-13.912-45.051-27.149-62.815
		c-1.42-1.912-7.097-8.771-20.307-16.791l-1.863-1.131c1.013-10.088,1.542-20.316,1.542-30.666c0-11.684-0.727-23.196-2.015-34.541
		l2.501-1.501c10.407-6.246,17.046-12.524,19.787-16.316c11.8-16.321,17.504-36.097,24.104-58.991
		c0.94-3.261,1.885-6.539,2.857-9.833c3.576-12.154,7.666-23.125,12.309-32.958c-10.286-3.526-21.003-8.235-32.212-14.138
		l-4.018-2.117c-23.28-12.292-41.669-22.003-63.578-25.203c-6.301-0.94-16.1,0-26.237,2.487l-2.288,0.56
		c-13.762-16.821-29.313-32.104-46.311-45.654l0.752-3.002c2.94-11.762,3.195-20.892,2.454-25.519
		c-3.2-19.892-13.154-37.905-24.673-58.764c-1.642-2.968-3.289-5.953-4.93-8.965c-6.063-11.126-10.927-21.777-14.597-32.013
		c-9.766,4.781-20.671,9.031-32.77,12.779l-4.339,1.343c-25.159,7.771-45.029,13.912-62.782,27.138
		c-5.102,3.797-11.386,11.397-16.808,20.318l-1.125,1.852c-10.087-1.013-20.312-1.542-30.661-1.542
		c-11.684,0-23.197,0.728-34.544,2.015l-1.503-2.507c-6.235-10.396-12.513-17.034-16.31-19.781
		c-16.321-11.8-36.097-17.504-58.991-24.104c-3.261-0.94-6.539-1.885-9.833-2.857c-12.154-3.576-23.125-7.672-32.958-12.309
		c-3.521,10.28-8.23,20.997-14.127,32.201L429.606,264.623z M600,880.118c-158.583,0-287.602-129.019-287.602-287.602
		S441.417,304.915,600,304.915s287.602,129.019,287.602,287.602S758.583,880.118,600,880.118z"/>
	<path fill="#8B58BC" d="M693.216,656.134c-16.952-20.384-43.664-30.172-79.767-29.537c40.9-33.787,55.768-67.309,44.206-99.797
		c-6.002-16.863-17.532-27.083-33.339-29.564c-38.181-5.991-92.44,34.307-109.574,56.697c-4.516,5.908-3.499,13.481,2.415,18.002
		c5.991,4.571,15.57,4.864,21.241-2.554c14.254-18.637,32.494-31.897,52.745-38.336c13.613-4.328,32.549-4.737,41.177,8.318
		c2.299,3.477,1.465,13.95-8.473,31.996c-15.769,28.636-45.256,47.804-74.229,64.932c-1.52,0.376-3.045,0.757-4.51,1.139
		c-4.416,1.161-7.727,4.04-9.286,8.02c-3.996,4.914-3.996,12.032,0.171,17.488c4.405,5.759,11.806,7.229,18.024,3.598l6.434-3.797
		c53.132-13.022,88.306-10.513,107.524,7.677c13.74,13,16.227,29.194,15.896,40.491c-0.597,20.411-11.076,42.083-26.696,55.216
		c-21.567,18.134-45.256,23.96-70.398,17.311c-44.604-11.795-83.47-59.908-98.813-101.339c-3.173-8.567-12.198-11.049-19.14-8.479
		c-7.191,2.664-10.496,9.783-7.848,16.929c14.509,39.165,42.863,90.351,95.563,111.769c16.167,6.566,32.798,9.75,48.904,9.75
		c32.56,0,62.992-13.005,83.149-37.313C717.988,739.305,719.978,688.312,693.216,656.134z"/>
	<path fill="#8B58BC" d="M745.065,600.747c-2.056-4.565-6.837-7.865-12.182-8.401c-5.295-0.558-10.103,1.647-13.226,5.986
		c-6.975,9.689-7.771,24.59-2.023,37.96c5.273,12.27,15.017,20.483,26.055,21.981c1.608,0.216,3.222,0.321,4.836,0.321
		c9.026,0,18.107-3.344,26.005-9.667c11.248-9.004,18.969-23.004,20.141-36.534c2.487-28.669-19.627-53.85-50.341-57.321
		c-27.243-3.057-57.238,10.811-80.17,37.164c-3.471,3.979-4.488,9.081-2.802,13.995c1.736,5.057,6.08,8.948,11.06,9.921
		c4.565,0.895,9.026-0.752,12.287-4.482c6.981-8.025,31.897-33.737,59.67-28.133c11.502,2.344,23.004,12.375,22.34,25.099
		c-0.216,4.112-1.901,17.455-15.979,17.057c-4.405-0.149-8.849-2.006-9.899-4.14c-0.801-1.636,0.171-4.571,2.67-8.042
		C746.364,609.54,746.933,604.892,745.065,600.747z"/>
	<path fill="#8B58BC" d="M515.653,417.203c12.58,37.219,46.223,61.428,87.803,63.169c1.006,0.044,2.001,0.061,2.99,0.061
		c37.634,0,65.54-29.984,87.952-59.538c2.918-3.852,3.604-8.412,1.879-12.519c-1.918-4.554-6.61-7.926-11.955-8.6
		c-5.367-0.696-10.336,1.404-13.602,5.704c-16.836,22.208-37.159,45.123-60.201,46.72c-30.089,2.095-58.615-16.045-67.768-43.133
		c-2.985-8.827-11.762-11.17-18.549-8.876C516.769,402.7,513.171,409.858,515.653,417.203z"/>
	<path fill="#8B58BC" d="M590.992,379.57c-5.157,5.024-7.953,12.11-8.307,21.053c-0.088,2.139,0.276,4.178,1.083,6.069
		c0.553,2.449,1.338,4.488,2.448,6.367c3.731,6.312,10.7,9.938,17.913,9.938c1.99,0,4.002-0.276,5.969-0.851
		c7.075-1.327,13.58-5.56,17.41-11.336c3.311-4.991,4.449-10.888,3.206-16.598c-0.768-3.526-2.388-6.782-4.825-9.689
		c-2.46-4.621-6.235-8.064-10.966-9.999C606.894,371.251,597.503,373.241,590.992,379.57z"/>
</g>
</svg>
