<?xml version="1.0" encoding="utf-8"?>
<!-- Designed by Vexels.com - 2019 All Rights Reserved - https://vexels.com/terms-and-conditions/  -->
<svg version="1.1" id="Layer_1" xmlns="http://www.w3.org/2000/svg" xmlns:xlink="http://www.w3.org/1999/xlink" x="0px" y="0px"
	 viewBox="0 0 1200 1200" enable-background="new 0 0 1200 1200" xml:space="preserve">
<g>
	<path fill="#FFD95F" d="M1130.421,578.247c-18.084-4.8-36.794-19.239-57.173-44.121l-3.283-4.012
		c-20.919-25.595-40.676-49.764-70.931-68.107c-8.856-5.373-20.173-9.892-32.825-13.186c5.843-9.547,11.404-20.859,14.293-32.636
		c7.905-32.253,4.795-61.827,1.501-93.146c-0.4-3.812-0.805-7.641-1.188-11.501c-3.175-31.923-0.178-55.331,9.169-71.509
		c6.14-7.954,7.641-20.217-1.28-29.137c-8.694-8.694-20.994-7.279-29.018-1.334c-16.188,9.39-39.64,12.419-71.622,9.223
		l-5.141-0.513c-32.901-3.31-63.976-6.431-98.34,1.998c-10.06,2.462-21.259,7.268-32.534,13.883
		c-2.624-10.881-6.685-22.814-12.976-33.181c-17.22-28.403-40.342-47.124-64.829-66.946c-2.97-2.403-5.956-4.822-8.942-7.268
		c-24.823-20.335-39.251-39.008-44.084-57.048C619.933,59.736,612.325,50,599.716,50c-12.301,0-19.99,9.703-21.469,19.58
		c-4.806,18.084-19.239,36.794-44.121,57.173l-4.012,3.283c-25.595,20.919-49.764,40.676-68.113,70.931
		c-5.367,8.85-9.887,20.168-13.181,32.825c-9.552-5.843-20.859-11.404-32.636-14.293c-32.247-7.9-61.816-4.795-93.146-1.501
		c-3.812,0.4-7.646,0.805-11.507,1.188c-31.896,3.186-55.326,0.178-71.509-9.169c-7.954-6.129-20.217-7.641-29.137,1.274
		c-8.688,8.699-7.268,20.994-1.339,29.024c9.396,16.183,12.419,39.623,9.234,71.622l-0.518,5.173
		c-3.305,32.884-6.426,63.949,1.998,98.308c2.468,10.054,7.273,21.253,13.888,32.528c-10.875,2.624-22.809,6.685-33.187,12.981
		c-28.397,17.214-47.118,40.331-66.935,64.808c-2.408,2.975-4.827,5.967-7.284,8.964c-20.319,24.817-38.992,39.251-57.043,44.084
		C59.736,580.067,50,587.675,50,600.284c0,12.301,9.698,19.99,19.574,21.469c18.095,4.806,36.805,19.245,57.173,44.121l3.283,4.012
		c20.919,25.595,40.676,49.764,70.931,68.107c8.85,5.367,20.168,9.887,32.825,13.186c-5.837,9.541-11.399,20.848-14.293,32.641
		c-7.905,32.253-4.795,61.838-1.501,93.162c0.405,3.807,0.805,7.63,1.188,11.48c3.18,31.918,0.184,55.32-9.169,71.509
		c-6.14,7.954-7.641,20.217,1.28,29.137c8.694,8.699,20.989,7.273,29.024,1.345c16.194-9.401,39.64-12.414,71.622-9.234l5.178,0.518
		c32.868,3.299,63.928,6.431,98.302-1.998c10.054-2.468,21.253-7.273,32.528-13.888c2.624,10.875,6.685,22.803,12.976,33.187
		c17.209,28.386,40.315,47.097,64.781,66.903c2.986,2.419,5.988,4.849,8.991,7.306c24.823,20.33,39.251,39.002,44.084,57.054
		c1.291,9.968,8.899,19.698,21.507,19.698c12.295,0,19.984-9.698,21.464-19.569c4.8-18.089,19.239-36.799,44.116-57.178l4.023-3.288
		c25.595-20.919,49.77-40.671,68.107-70.931c5.367-8.85,9.887-20.168,13.181-32.825c9.547,5.843,20.854,11.404,32.642,14.293
		c32.253,7.9,61.833,4.795,93.146,1.501c3.812-0.4,7.641-0.805,11.501-1.188c31.929-3.175,55.337-0.173,71.509,9.169
		c7.943,6.129,20.217,7.635,29.142-1.274c8.694-8.704,7.268-21,1.328-29.024c-9.39-16.183-12.414-39.623-9.228-71.622l0.518-5.178
		c3.305-32.879,6.426-63.938-1.998-98.297c-2.462-10.049-7.263-21.248-13.888-32.534c10.875-2.624,22.803-6.685,33.187-12.976
		c28.392-17.209,47.107-40.325,66.925-64.797c2.408-2.981,4.838-5.978,7.29-8.974c20.33-24.823,39.002-39.251,57.048-44.084
		c9.968-1.291,19.704-8.899,19.704-21.507C1150,587.416,1140.297,579.727,1130.421,578.247z M789.847,241.745
		c30.687-7.527,58.571-4.709,90.862-1.474l5.162,0.518c36.961,3.693,64.851-0.34,85.224-12.284
		c-11.944,20.368-15.967,48.252-12.29,85.224c0.389,3.899,0.794,7.77,1.204,11.626c3.083,29.342,5.999,57.059-0.988,85.559
		c-2.415,9.861-8.047,21.409-16.021,33.027c-4.117-9.015-8.541-17.856-13.332-26.474c0.702-2.759,0.336-5.724-1.123-8.259
		c-0.169-0.292-0.413-0.515-0.605-0.788c0.641-1.673,1.187-3.28,1.544-4.742c5.724-23.359,3.202-47.356,0.275-75.143
		c-0.41-3.909-0.821-7.84-1.215-11.793c-1.62-16.286-1.89-31.211-0.794-44.894c-13.683,1.107-28.608,0.821-44.899-0.799
		l-5.184-0.518c-30.714-3.094-54.98-5.529-80.581,0.751c-2.403,0.589-5.122,1.571-8.006,2.82
		c-10.482-6.105-21.276-11.713-32.366-16.805C768.359,249.638,779.933,244.175,789.847,241.745z M954.842,600.003
		c0,188.854-148.315,343.676-334.577,354.221l296.576-513.686C941.089,488.52,954.842,542.67,954.842,600.003z M245.152,600.003
		c0-57.333,13.753-111.483,38.001-159.465l296.576,513.686C393.468,943.679,245.152,788.857,245.152,600.003z M599.997,245.158
		c123.109,0,231.739,63.048,295.402,158.521H304.596C368.259,308.205,476.888,245.158,599.997,245.158z M300.181,425.796h599.632
		L599.997,945.09L300.181,425.796z M544.11,147.158l4.034-3.299c28.737-23.538,45.612-46.098,51.568-68.96
		c5.956,22.852,22.83,45.417,51.578,68.966c3.018,2.473,6.037,4.914,9.039,7.344c22.944,18.575,44.613,36.119,59.835,61.228
		c5.25,8.655,9.423,20.763,12.002,34.578c-11.219-4.215-22.692-7.892-34.387-11.036c-1.127-3.001-2.341-5.66-3.621-7.769
		c-12.473-20.584-31.238-35.773-52.966-53.36c-3.045-2.468-6.107-4.946-9.169-7.457c-12.662-10.368-23.408-20.74-32.307-31.184
		c-8.899,10.449-19.644,20.811-32.307,31.184l-4.055,3.315c-23.899,19.531-42.771,34.963-56.438,57.497
		c-1.251,2.065-2.451,4.614-3.585,7.457c-11.843,3.145-23.459,6.842-34.818,11.084c2.82-13.612,7.128-25.617,12.398-34.308
		C497.289,185.431,518.985,167.693,544.11,147.158z M228.5,228.905c20.368,11.944,48.247,15.967,85.224,12.29
		c3.899-0.389,7.776-0.794,11.631-1.204c29.337-3.089,57.054-6.005,85.559,0.988c9.861,2.42,21.405,8.048,33.022,16.021
		c-10.97,5.011-21.653,10.528-32.03,16.53c-2.987-1.366-5.787-2.415-8.233-3.015c-23.349-5.729-47.35-3.202-75.138-0.275
		c-3.909,0.41-7.84,0.821-11.798,1.215c-16.291,1.625-31.221,1.895-44.894,0.794c1.096,13.678,0.826,28.608-0.794,44.888
		l-0.524,5.227c-3.083,30.708-5.524,54.959,0.751,80.543c0.351,1.434,0.869,3,1.465,4.622c-0.463,0.531-0.933,1.057-1.292,1.68
		c-1.459,2.535-1.825,5.5-1.123,8.259c-4.673,8.408-8.999,17.027-13.032,25.811c-7.658-11.646-13.124-23.222-15.554-33.131
		c-7.516-30.66-4.714-58.544-1.469-90.824l0.518-5.195C244.467,277.162,240.444,249.278,228.5,228.905z M212.43,719.083
		c-27.01-16.372-44.742-38.068-65.278-63.193l-3.294-4.028c-23.532-28.743-46.098-45.617-68.96-51.573
		c22.863-5.961,45.423-22.836,68.955-51.578c2.484-3.029,4.93-6.053,7.365-9.055c18.57-22.938,36.108-44.602,61.212-59.818
		c8.669-5.255,20.776-9.432,34.58-12.006c-4.215,11.22-7.893,22.694-11.038,34.389c-3.001,1.128-5.662,2.341-7.774,3.622
		c-20.573,12.473-35.763,31.227-53.344,52.95c-2.473,3.051-4.957,6.112-7.468,9.185c-10.368,12.657-20.73,23.408-31.178,32.307
		c10.449,8.899,20.816,19.65,31.178,32.312l3.315,4.05c19.531,23.894,34.958,42.771,57.491,56.427
		c2.068,1.254,4.618,2.456,7.461,3.591c3.145,11.844,6.844,23.463,11.086,34.822C233.129,728.664,221.125,724.353,212.43,719.083z
		 M410.147,958.26c-30.671,7.516-58.544,4.714-90.824,1.474l-5.195-0.524c-36.945-3.677-64.856,0.335-85.24,12.301
		c11.96-20.384,15.983-48.274,12.301-85.241c-0.389-3.888-0.794-7.754-1.199-11.604c-3.089-29.348-6.005-57.07,0.983-85.581
		c2.424-9.873,8.055-21.416,16.024-33.02c5.011,10.969,10.528,21.651,16.53,32.028c-1.366,2.989-2.416,5.791-3.017,8.243
		c-5.724,23.349-3.197,47.356-0.275,75.148c0.41,3.904,0.821,7.824,1.215,11.771c1.625,16.286,1.895,31.211,0.799,44.894
		c13.683-1.107,28.608-0.832,44.899,0.799l5.222,0.524c30.698,3.078,54.953,5.519,80.537-0.751c2.403-0.589,5.123-1.573,8.011-2.823
		c10.481,6.104,21.275,11.712,32.363,16.803C431.633,950.363,420.057,955.83,410.147,958.26z M655.89,1052.837l-4.039,3.305
		c-28.743,23.543-45.617,46.109-51.573,68.96c-5.956-22.857-22.83-45.423-51.568-68.96c-3.04-2.489-6.075-4.946-9.088-7.387
		c-22.927-18.559-44.58-36.092-59.786-61.179c-5.254-8.674-9.431-20.784-12.005-34.589c11.219,4.214,22.691,7.892,34.386,11.036
		c1.13,3.009,2.346,5.677,3.63,7.796c12.452,20.546,31.2,35.725,52.907,53.296c3.062,2.479,6.14,4.973,9.223,7.495
		c12.657,10.368,23.408,20.735,32.307,31.184c8.893-10.443,19.639-20.811,32.296-31.178l4.066-3.326
		c23.899-19.525,42.771-34.953,56.427-57.48c1.254-2.068,2.456-4.621,3.591-7.468c11.843-3.145,23.459-6.842,34.818-11.084
		c-2.82,13.609-7.128,25.618-12.398,34.314C702.711,1014.574,681.015,1032.307,655.89,1052.837z M971.495,971.095
		c-20.373-11.95-48.247-15.962-85.224-12.29c-3.899,0.389-7.77,0.794-11.626,1.204c-29.331,3.089-57.043,6.01-85.559-0.988
		c-9.869-2.42-21.418-8.048-33.029-16.02c10.97-5.011,21.653-10.529,32.031-16.531c2.986,1.365,5.786,2.414,8.233,3.015
		c23.365,5.724,47.356,3.197,75.143,0.275c3.909-0.41,7.84-0.821,11.793-1.215c16.286-1.625,31.211-1.895,44.894-0.794
		c-1.096-13.678-0.826-28.608,0.794-44.888l0.524-5.232c3.083-30.703,5.524-54.953-0.751-80.537c-0.587-2.403-1.57-5.123-2.82-8.01
		c6.104-10.48,11.712-21.274,16.803-32.362c7.666,11.654,13.128,23.23,15.554,33.131c7.516,30.665,4.714,58.544,1.469,90.824
		l-0.518,5.195C955.528,922.838,959.551,950.722,971.495,971.095z M1056.141,651.29c-2.484,3.035-4.935,6.059-7.376,9.072
		c-18.564,22.933-36.103,44.591-61.195,59.802c-8.673,5.254-20.784,9.431-34.584,12.005c4.214-11.219,7.893-22.693,11.037-34.388
		c3.006-1.129,5.672-2.345,7.791-3.628c20.551-12.457,35.736-31.211,53.317-52.928c2.473-3.056,4.962-6.123,7.479-9.201
		c10.373-12.662,20.735-23.408,31.184-32.307c-10.449-8.899-20.811-19.644-31.184-32.307l-3.315-4.055
		c-19.531-23.894-34.958-42.771-57.491-56.427c-2.068-1.254-4.62-2.457-7.462-3.592c-3.145-11.844-6.844-23.461-11.086-34.82
		c13.603,2.818,25.61,7.126,34.31,12.401c27.01,16.372,44.742,38.068,65.278,63.193l3.299,4.034
		c23.543,28.743,46.103,45.622,68.955,51.573C1102.239,605.678,1079.679,622.552,1056.141,651.29z"/>
	<path fill="#FFD95F" d="M604.556,858.28c6.787,0,13.786-4.541,14.66-12.873c4.52-43.085-3.899-85.251-24.38-122.828
		c34.737,9.185,60.688-0.173,73.863-27.08c10.449-21.351,5.205-45.876,0.351-62.47c-7.473-25.53-17.765-50.137-28.003-73.35
		c29.688-2.408,59.036-5.718,86.131-8.931l10.918-1.28c9.034-1.139,13.51-9.352,12.619-16.637
		c-0.88-7.198-6.76-11.788-13.964-10.929c-94.609,11.28-173.505,19.137-255.587,9.579c-4.752-0.578-8.883,1.145-11.485,4.644
		c-2.889,3.882-3.407,9.514-1.323,14.347c2.09,4.844,6.291,7.97,11.523,8.58c39.58,4.617,82.778,5.486,131.965,2.651
		c1.161,2.538,2.333,5.097,3.521,7.678c13.283,28.916,27.015,58.809,30.811,88.421c1.609,12.533-1.42,23.964-8.305,31.367
		c-6.285,6.75-15.432,9.979-26.513,9.39c-16.923-0.934-32.431-10.308-47.431-19.369l-2.009-1.215
		c-5.951-3.585-12.905-2.397-17.301,2.932c-4.552,5.524-4.428,13.321,0.292,18.537c35.768,39.564,52.361,90.991,46.724,144.805
		c-0.767,7.311,4.007,13.175,11.356,13.948C603.508,858.253,604.032,858.28,604.556,858.28z"/>
	<path fill="#FFD95F" d="M587.655,509.85c5.227,4.892,12.122,7.495,19.358,7.495c2.581,0,5.205-0.329,7.808-1.004
		c10.125-2.624,17.981-9.828,21.016-19.266c2.997-9.325,0.896-19.612-5.616-27.517c-6.21-7.533-15.389-11.361-24.655-10.276
		c-7.889,0.94-15.238,5.211-20.157,11.723c-4.574,6.048-6.609,13.516-5.621,20.562C579.879,498.694,582.66,505.174,587.655,509.85z"
		/>
</g>
</svg>
